<svg width="43" height="43" viewBox="0 0 43 43" fill="none" xmlns="http://www.w3.org/2000/svg">
<path d="M25.8252 2.35362C27.112 1.50117 29.2924 0.892563 30.9379 2.53805L40.4604 12.0626C42.112 13.7102 41.5014 15.8905 40.6469 17.1753C40.1842 17.872 39.582 18.4651 38.8784 18.9171C38.194 19.3536 37.3292 19.6835 36.3969 19.6343C35.9458 19.6024 35.496 19.5538 35.0485 19.4888L34.9092 19.4683C34.4284 19.3994 33.9451 19.3495 33.4604 19.3187C32.4276 19.2675 32.0301 19.4417 31.903 19.5646L26.8006 24.6691C26.6366 24.8331 26.4317 25.1978 26.276 25.8986C26.1264 26.5749 26.0608 27.4068 26.0444 28.329C26.0301 29.2142 26.0608 30.1199 26.0936 30.9929L26.0957 31.0892C26.1264 31.956 26.1571 32.8412 26.1141 33.5359C25.9809 35.6486 24.3354 37.2039 22.7166 37.9232C21.0977 38.6404 18.7883 38.8187 17.1838 37.2121L12.5731 32.6015L4.16128 41.0134C4.02058 41.1643 3.85091 41.2855 3.66239 41.3695C3.47386 41.4535 3.27035 41.4986 3.06399 41.5023C2.85764 41.5059 2.65266 41.4679 2.46129 41.3907C2.26992 41.3134 2.09608 41.1983 1.95014 41.0524C1.8042 40.9064 1.68915 40.7326 1.61186 40.5412C1.53456 40.3498 1.4966 40.1449 1.50024 39.9385C1.50388 39.7322 1.54905 39.5286 1.63305 39.3401C1.71705 39.1516 1.83816 38.9819 1.98916 38.8412L10.399 30.4294L5.78833 25.8187C4.18382 24.2122 4.36005 21.9048 5.07931 20.286C5.79652 18.6671 7.3539 17.0216 9.46455 16.8884C10.1613 16.8454 11.0465 16.8761 11.9133 16.9069L12.0096 16.9089C12.8826 16.9396 13.7883 16.9724 14.6736 16.9581C15.5957 16.9417 16.4276 16.8761 17.1039 16.7265C17.8047 16.5708 18.1694 16.3638 18.3334 16.1999L23.4358 11.0975C23.5608 10.9725 23.735 10.5729 23.6817 9.54008C23.651 9.05538 23.6011 8.57208 23.5321 8.09131L23.5137 7.95197C23.4487 7.50445 23.4002 7.0547 23.3682 6.60361C23.317 5.67124 23.6469 4.80649 24.0813 4.12206C24.5239 3.42534 25.1366 2.81059 25.8252 2.35362Z" fill="#FF593C" stroke="#2C3A36" stroke-width="3"/>
</svg>
