<svg width="176" height="176" viewBox="0 0 176 176" fill="none" xmlns="http://www.w3.org/2000/svg">
<path d="M132 14.6666H44.0002C35.9335 14.6666 29.3335 21.2666 29.3335 29.3333V146.667C29.3335 154.733 35.9335 161.333 44.0002 161.333H132C140.067 161.333 146.667 154.733 146.667 146.667V29.3333C146.667 21.2666 140.067 14.6666 132 14.6666ZM66.0002 139.333H51.3335V124.667H66.0002V139.333ZM66.0002 110H51.3335V95.3333H66.0002V110ZM66.0002 80.6666H51.3335V66H66.0002V80.6666ZM95.3335 139.333H80.6668V124.667H95.3335V139.333ZM95.3335 110H80.6668V95.3333H95.3335V110ZM95.3335 80.6666H80.6668V66H95.3335V80.6666ZM124.667 139.333H110V95.3333H124.667V139.333ZM124.667 80.6666H110V66H124.667V80.6666ZM132 51.3333H44.0002V29.3333H132V51.3333Z" fill="#2C3A36"/>
</svg>
