<svg width="85" height="85" viewBox="0 0 85 85" fill="none" xmlns="http://www.w3.org/2000/svg">
<path d="M49.9444 9.43502C52.1686 7.96168 55.9369 6.90981 58.7809 9.75377L75.239 26.2154C78.0936 29.0629 77.0382 32.8313 75.5613 35.0519C74.7617 36.256 73.7209 37.2811 72.5049 38.0623C71.3219 38.8167 69.8274 39.3869 68.2159 39.3019C67.4363 39.2467 66.6589 39.1628 65.8855 39.0504L65.6446 39.015C64.8137 38.8959 63.9784 38.8096 63.1407 38.7565C61.3557 38.6679 60.6686 38.969 60.449 39.1815L51.6303 48.0038C51.3469 48.2871 50.9928 48.9175 50.7236 50.1288C50.4651 51.2975 50.3517 52.7354 50.3234 54.3292C50.2986 55.8592 50.3517 57.4246 50.4084 58.9333L50.4119 59.0998C50.4651 60.5979 50.5182 62.1279 50.4438 63.3286C50.2136 66.98 47.3696 69.6681 44.5717 70.9113C41.7738 72.1508 37.7824 72.459 35.0092 69.6823L27.0405 61.7136L12.5019 76.2521C12.2588 76.5131 11.9655 76.7224 11.6397 76.8676C11.3138 77.0128 10.9621 77.0908 10.6055 77.0971C10.2488 77.1034 9.89453 77.0378 9.56378 76.9042C9.23303 76.7706 8.93257 76.5718 8.68034 76.3195C8.42811 76.0673 8.22926 75.7668 8.09567 75.4361C7.96207 75.1053 7.89646 74.7511 7.90276 74.3944C7.90905 74.0378 7.98712 73.686 8.1323 73.3602C8.27748 73.0344 8.4868 72.7411 8.74777 72.4979L23.2828 57.9594L15.314 49.9906C12.5409 47.214 12.8455 43.2261 14.0886 40.4281C15.3282 37.6302 18.0199 34.7863 21.6678 34.5561C22.8719 34.4817 24.4019 34.5348 25.9001 34.5879L26.0665 34.5915C27.5753 34.6446 29.1407 34.7013 30.6707 34.6765C32.2644 34.6481 33.7024 34.5348 34.8711 34.2763C36.0824 34.0071 36.7128 33.6494 36.9961 33.3661L45.8149 24.5473C46.0309 24.3313 46.3319 23.6406 46.2399 21.8556C46.1867 21.0179 46.1004 20.1826 45.9813 19.3517L45.9494 19.1108C45.8371 18.3374 45.7532 17.5601 45.698 16.7804C45.6094 15.169 46.1796 13.6744 46.9305 12.4915C47.6955 11.2873 48.7544 10.2248 49.9444 9.43502Z" fill="#FF593C" stroke="#2C3A36" stroke-width="2"/>
</svg>
