<svg width="70" height="70" viewBox="0 0 70 70" fill="none" xmlns="http://www.w3.org/2000/svg">
<path d="M42.0421 1.47103C44.2663 -0.00230575 48.0346 -1.05418 50.8786 1.78978L67.3367 18.2514C70.1913 21.0989 69.1358 24.8673 67.659 27.0879C66.8594 28.292 65.8186 29.3171 64.6025 30.0983C63.4196 30.8527 61.925 31.4229 60.3136 31.3379C59.5339 31.2827 58.7566 31.1988 57.9831 31.0864L57.7423 31.051C56.9114 30.9319 56.0761 30.8457 55.2383 30.7925C53.4533 30.7039 52.7663 31.005 52.5467 31.2175L43.7279 40.0398C43.4446 40.3231 43.0904 40.9535 42.8213 42.1648C42.5627 43.3335 42.4494 44.7714 42.4211 46.3652C42.3963 47.8952 42.4494 49.4606 42.5061 50.9694L42.5096 51.1358C42.5627 52.6339 42.6158 54.1639 42.5415 55.3646C42.3113 59.016 39.4673 61.7041 36.6694 62.9473C33.8715 64.1869 29.88 64.495 27.1069 61.7183L19.1381 53.7496L4.59959 68.2881C4.35641 68.5491 4.06316 68.7584 3.73733 68.9036C3.4115 69.0488 3.05977 69.1268 2.70311 69.1331C2.34645 69.1394 1.99218 69.0738 1.66143 68.9402C1.33068 68.8066 1.03023 68.6078 0.777998 68.3555C0.525765 68.1033 0.326919 67.8028 0.193324 67.4721C0.0597287 67.1413 -0.00587939 66.7871 0.000413387 66.4304C0.00670617 66.0738 0.0847716 65.722 0.229951 65.3962C0.375131 65.0704 0.584451 64.7771 0.845426 64.5339L15.3804 49.9954L7.41168 42.0266C4.63855 39.25 4.94313 35.2621 6.18626 32.4641C7.42584 29.6662 10.1175 26.8223 13.7654 26.5921C14.9696 26.5177 16.4996 26.5708 17.9977 26.6239L18.1642 26.6275C19.6729 26.6806 21.2383 26.7373 22.7683 26.7125C24.3621 26.6842 25.8 26.5708 26.9688 26.3123C28.18 26.0431 28.8104 25.6854 29.0938 25.4021L37.9125 16.5833C38.1286 16.3673 38.4296 15.6767 38.3375 13.8917C38.2843 13.0539 38.1981 12.2186 38.079 11.3877L38.0471 11.1469C37.9347 10.3734 37.8509 9.59607 37.7956 8.81644C37.7071 7.20499 38.2773 5.7104 39.0281 4.52749C39.7931 3.32332 40.8521 2.26082 42.0421 1.47103Z" fill="#FF593C"/>
</svg>
